<svg xmlns="http://www.w3.org/2000/svg" viewBox="0 0 42.52 22.46"><defs><style>.cls-1{fill:#1a1a18;}.cls-2{fill:#5f308a;}</style></defs><g id="Camada_2" data-name="Camada 2"><g id="Layer_17" data-name="Layer 17"><path class="cls-1" d="M.73,22.39H.23c0-.13,0-.26,0-.37v-.14a.53.53,0,0,1,0-.13V17.93H.74v1.83a1.2,1.2,0,0,1,.48-.39,1.56,1.56,0,0,1,.62-.12,1.28,1.28,0,0,1,.61.13,1.06,1.06,0,0,1,.41.34,1.37,1.37,0,0,1,.24.5,2.35,2.35,0,0,1,.08.6,2.13,2.13,0,0,1-.09.63,1.75,1.75,0,0,1-.26.53,1.36,1.36,0,0,1-.44.35,1.33,1.33,0,0,1-.61.13,1.41,1.41,0,0,1-.59-.12A1.28,1.28,0,0,1,.74,22Zm2-1.64a1.21,1.21,0,0,0-.07-.43A.92.92,0,0,0,2.42,20a.76.76,0,0,0-.3-.23.87.87,0,0,0-.4-.09.82.82,0,0,0-.42.1A.86.86,0,0,0,1,20a1.5,1.5,0,0,0-.19.38,1.76,1.76,0,0,0-.06.46,2.26,2.26,0,0,0,.05.47,1,1,0,0,0,.17.36.71.71,0,0,0,.3.23,1.19,1.19,0,0,0,.46.08.91.91,0,0,0,.45-.11.89.89,0,0,0,.3-.28,1.23,1.23,0,0,0,.16-.39A2.4,2.4,0,0,0,2.68,20.75Z"/><path class="cls-1" d="M8.82,19.25a1.72,1.72,0,0,1,.34,0l.29.1a.78.78,0,0,1,.24.16,1.34,1.34,0,0,1,.21.2l0-.42h.49l0,.76v2.31H9.9V22a1.57,1.57,0,0,1-.18.19l-.25.16a1.85,1.85,0,0,1-.31.11,1.27,1.27,0,0,1-.34,0,1.41,1.41,0,0,1-.47-.07A1.16,1.16,0,0,1,8,22.21a1.28,1.28,0,0,1-.29-.28,1.45,1.45,0,0,1-.2-.34,1.66,1.66,0,0,1-.11-.38,1.72,1.72,0,0,1,0-.39,2,2,0,0,1,.09-.58,1.62,1.62,0,0,1,.27-.5,1.35,1.35,0,0,1,1.11-.49Zm.06,2.82A.86.86,0,0,0,9.27,22a1,1,0,0,0,.32-.25,1.08,1.08,0,0,0,.22-.41,1.7,1.7,0,0,0,.09-.57,1.33,1.33,0,0,0-.07-.45A1.08,1.08,0,0,0,9.62,20a.86.86,0,0,0-.33-.23,1.18,1.18,0,0,0-.43-.08,1.14,1.14,0,0,0-.33.05,1.05,1.05,0,0,0-.26.13,1,1,0,0,0-.2.21,1.19,1.19,0,0,0-.13.25.92.92,0,0,0-.08.27,1.43,1.43,0,0,0,0,.29c0,.09,0,.18,0,.28a1.27,1.27,0,0,0,.06.28,1,1,0,0,0,.13.25.76.76,0,0,0,.19.21A.87.87,0,0,0,8.5,22,1.12,1.12,0,0,0,8.88,22.07Z"/><path class="cls-1" d="M15.47,22.39H15V20.06a2.44,2.44,0,0,0,0-.27v-.24a1.77,1.77,0,0,1,0-.23h.5v.43a1.11,1.11,0,0,1,.43-.38,1.4,1.4,0,0,1,.6-.12,1.25,1.25,0,0,1,.55.11.88.88,0,0,1,.35.31,1.54,1.54,0,0,1,.18.47,3.91,3.91,0,0,1,0,.61v1.64h-.49V20.8c0-.17,0-.33,0-.47A1.34,1.34,0,0,0,17,20a.58.58,0,0,0-.21-.23,1,1,0,0,0-1.08.22.83.83,0,0,0-.18.25.49.49,0,0,0-.07.24Z"/><path class="cls-1" d="M22.82,17.93v2.71l1.39-1.32h.67L23.3,20.77l.85.81.85.81h-.66l-1.52-1.5v1.5h-.5V17.93Z"/><path class="cls-2" d="M30.79,20.85l5-5.93a2.72,2.72,0,0,1-1.4.23A7.39,7.39,0,0,1,29,13a7.08,7.08,0,0,1-2.2-5.29A7.5,7.5,0,0,1,29,2.23,7.65,7.65,0,0,1,34.68,0a7.6,7.6,0,0,1,5.66,2.2,7.37,7.37,0,0,1,2.18,5.41,8.47,8.47,0,0,1-2,5.46l-7.65,9.32ZM29.55,7.64A5.2,5.2,0,0,0,31,11.36a4.86,4.86,0,0,0,3.66,1.54,4.78,4.78,0,0,0,3.63-1.54,5.19,5.19,0,0,0,1.46-3.72,5.3,5.3,0,0,0-1.44-3.75,5.12,5.12,0,0,0-7.32,0A5.27,5.27,0,0,0,29.55,7.64Z"/><path class="cls-1" d="M0,15.67V0H7.28a4.78,4.78,0,0,1,3.16,1A3.42,3.42,0,0,1,11.66,3.8a3.21,3.21,0,0,1-.53,1.76A2.64,2.64,0,0,1,9.89,6.65a3.78,3.78,0,0,1,2.36,1.43,4.31,4.31,0,0,1,1,2.8,4.25,4.25,0,0,1-1.62,3.49,6.67,6.67,0,0,1-4.31,1.3ZM1.93,6.05H7.38A2.22,2.22,0,0,0,9,5.45a2,2,0,0,0,.61-1.53A2.09,2.09,0,0,0,9,2.33a2.55,2.55,0,0,0-1.83-.61H1.93Zm0,7.91H7.16a4.7,4.7,0,0,0,2.93-.84,2.64,2.64,0,0,0,1.08-2.21,3,3,0,0,0-.93-2.29,3.77,3.77,0,0,0-2.65-.86H1.93Z"/><path class="cls-1" d="M14.08,9.8a6.1,6.1,0,0,1,1.71-4.35A5.58,5.58,0,0,1,20,3.65a5.27,5.27,0,0,1,4,1.79A6.05,6.05,0,0,1,25.64,9.7l-.05.77H16a4.23,4.23,0,0,0,4.28,3.78,5.24,5.24,0,0,0,3.63-1.36l.87,1.33a6.81,6.81,0,0,1-4.5,1.7,6.2,6.2,0,0,1-4.4-1.72A5.79,5.79,0,0,1,14.08,9.8ZM16,9h7.79a4.21,4.21,0,0,0-1.27-2.67,3.65,3.65,0,0,0-2.6-1,3.61,3.61,0,0,0-2.59,1.06A4.38,4.38,0,0,0,16,9Z"/></g></g></svg>